<?xml version="1.0" encoding="UTF-8" standalone="no"?>
<!DOCTYPE svg PUBLIC "-//W3C//DTD SVG 1.1//EN" "http://www.w3.org/Graphics/SVG/1.1/DTD/svg11.dtd">
<svg xmlns="http://www.w3.org/2000/svg" version="1.1" viewBox="0 0 184 73">
<g stroke-width="2.00" fill="none" stroke-linecap="butt">
<path stroke="#7a2c36" vector-effect="non-scaling-stroke" d="
  M 171.94 42.91
  C 169.60 42.46 167.38 41.67 164.97 41.89
  Q 158.17 42.49 151.29 42.81
  Q 149.87 42.88 149.54 44.75"
/>
<path stroke="#7a2c36" vector-effect="non-scaling-stroke" d="
  M 145.10 35.87
  Q 144.96 35.90 144.85 35.55
  A 0.50 0.46 79.6 0 0 144.36 35.18
  Q 137.44 35.69 130.52 35.32
  C 128.12 35.19 125.93 36.05 123.54 36.41
  A 0.41 0.38 87.2 0 1 123.10 35.98
  Q 123.14 35.20 122.54 35.50"
/>
</g>
<path fill="#371653" d="
  M 174.31 31.59
  Q 171.87 18.04 160.29 12.02
  C 158.30 10.99 155.84 10.62 153.74 9.73
  Q 151.78 8.89 153.56 7.80
  L 162.08 2.59
  Q 164.21 1.29 166.08 3.09
  Q 172.11 8.87 178.41 15.30
  C 182.50 19.49 182.84 19.23 180.04 24.21
  Q 177.74 28.30 174.96 31.75
  Q 174.45 32.38 174.31 31.59
  Z"
/>
<path fill="#5f2341" d="
  M 171.94 42.91
  C 169.60 42.46 167.38 41.67 164.97 41.89
  Q 158.17 42.49 151.29 42.81
  Q 149.87 42.88 149.54 44.75
  L 149.48 38.49
  A 1.25 1.23 -23.6 0 1 149.82 37.64
  C 151.84 35.58 158.11 30.17 158.67 27.65
  C 160.73 18.30 145.32 35.65 145.10 35.87
  Q 144.96 35.90 144.85 35.55
  A 0.50 0.46 79.6 0 0 144.36 35.18
  Q 137.44 35.69 130.52 35.32
  C 128.12 35.19 125.93 36.05 123.54 36.41
  A 0.41 0.38 87.2 0 1 123.10 35.98
  Q 123.14 35.20 122.54 35.50
  C 123.15 22.64 131.41 13.75 144.04 12.00
  C 155.16 10.45 163.93 16.17 169.37 25.80
  C 172.95 32.13 173.54 35.54 171.94 42.91
  Z"
/>
<path fill="#191655" d="
  M 18.23 24.99
  L 17.98 25.00
  A 0.38 0.33 -83.4 0 0 17.68 25.28
  C 16.66 29.40 16.41 33.96 14.05 37.57
  A 0.93 0.80 15.1 0 1 13.27 37.94
  L 7.70 37.72
  Q 5.87 37.64 5.52 36.00
  L 1.28 16.09
  A 1.37 1.34 73.2 0 1 2.09 14.54
  Q 8.12 12.13 8.96 18.19
  Q 9.64 23.12 10.15 28.01
  A 1.27 0.91 -81.5 0 0 10.58 28.85
  C 12.32 30.05 14.76 17.39 15.07 16.04
  A 2.25 2.23 -4.7 0 1 16.41 14.47
  Q 19.38 13.27 21.99 14.33
  A 2.70 2.69 7.3 0 1 23.66 16.49
  Q 24.29 21.35 24.64 26.18
  C 25.35 35.75 28.75 20.62 28.83 20.34
  C 30.10 15.89 30.45 13.16 35.81 14.14
  A 1.15 1.12 14.3 0 1 36.70 15.60
  L 29.75 36.89
  A 0.73 0.66 -79.4 0 1 29.09 37.39
  L 21.74 37.31
  A 1.53 1.32 84.8 0 1 20.42 36.03
  L 18.77 25.53
  A 0.63 0.49 83.0 0 0 18.23 24.99
  Z"
/>
<path fill="#191655" d="
  M 102.54 21.58
  Q 104.32 21.17 105.91 20.37
  C 110.85 17.87 115.07 20.61 115.02 26.12
  Q 114.97 30.84 115.00 35.50
  Q 115.02 37.58 113.19 37.51
  L 108.23 37.32
  A 0.46 0.43 -82.2 0 1 107.84 36.76
  Q 108.95 31.60 108.45 27.15
  Q 108.22 25.12 106.17 25.10
  C 100.69 25.07 101.31 31.95 101.16 36.87
  A 0.56 0.52 -89.4 0 1 100.65 37.41
  L 95.32 37.47
  A 0.55 0.52 88.3 0 1 94.79 36.94
  C 94.58 32.89 95.44 28.61 95.53 25.00
  Q 95.67 19.95 96.23 14.92
  A 0.77 0.75 85.1 0 1 96.77 14.26
  Q 99.34 13.53 101.53 14.53
  A 0.81 0.75 -78.7 0 1 101.97 15.25
  L 102.05 21.18
  A 0.41 0.39 82.8 0 0 102.54 21.58
  Z"
/>
<path fill="#191655" d="
  M 70.15 25.54
  Q 69.20 28.59 69.57 31.85
  A 0.90 0.83 -83.0 0 0 70.08 32.56
  Q 71.46 33.14 72.96 33.06
  A 0.48 0.44 -0.2 0 1 73.47 33.52
  L 73.26 36.71
  A 0.82 0.72 -9.4 0 1 72.72 37.37
  Q 68.98 38.71 65.25 37.35
  Q 63.20 36.61 63.27 34.45
  L 63.59 25.85
  A 0.59 0.56 6.0 0 0 63.11 25.28
  Q 59.76 24.65 61.26 21.18
  A 0.72 0.64 13.9 0 1 61.96 20.81
  Q 62.84 20.91 63.54 20.51
  A 1.21 0.53 -84.6 0 0 63.97 19.73
  L 64.48 17.37
  A 0.93 0.75 -3.6 0 1 65.15 16.76
  L 69.20 15.76
  A 1.49 0.85 -84.2 0 1 70.02 17.61
  Q 69.20 21.44 72.96 20.81
  A 0.63 0.61 -15.1 0 1 73.64 21.19
  Q 75.28 25.45 70.81 25.11
  A 0.65 0.62 10.8 0 0 70.15 25.54
  Z"
/>
<path fill="#191655" d="
  M 84.72 32.84
  L 89.95 32.65
  A 0.52 0.41 -3.7 0 1 90.48 33.01
  Q 90.71 35.12 90.58 35.52
  Q 89.78 37.99 87.17 38.01
  C 75.55 38.09 73.21 29.64 79.52 21.22
  A 1.68 1.63 -81.1 0 1 80.29 20.64
  Q 84.54 19.09 89.05 19.66
  A 1.60 1.39 -15.8 0 1 89.90 20.06
  Q 91.87 22.00 91.16 24.82
  A 0.45 0.41 19.3 0 1 90.56 25.08
  C 85.57 22.87 80.09 27.03 83.54 32.11
  A 1.61 1.16 67.5 0 0 84.72 32.84
  Z"
/>
<path fill="#191655" d="
  M 46.57 34.47
  L 47.93 34.53
  A 0.52 0.50 1.7 0 1 48.43 35.04
  Q 48.29 38.61 44.08 37.82
  C 35.68 36.25 38.59 28.02 45.52 27.54
  Q 49.18 27.28 49.96 26.24
  C 53.74 21.24 44.14 23.66 42.49 24.52
  Q 41.14 25.23 41.59 23.91
  L 42.44 21.40
  A 1.13 0.74 -4.5 0 1 43.18 20.83
  C 47.60 19.69 57.62 18.10 57.45 25.67
  Q 57.33 31.25 57.11 36.79
  A 0.60 0.52 -89.3 0 1 56.60 37.37
  L 51.16 37.41
  A 0.57 0.47 89.4 0 1 50.69 36.85
  L 50.66 30.87
  A 0.54 0.51 -0.0 0 0 50.12 30.36
  C 48.74 30.37 43.56 31.68 45.69 34.10
  A 1.37 0.97 -12.6 0 0 46.57 34.47
  Z"
/>
<path fill="#95342b" d="
  M 145.10 35.87
  L 145.42 45.82
  A 0.88 0.86 -76.5 0 0 145.87 46.57
  Q 148.93 48.24 149.54 44.75
  Q 149.87 42.88 151.29 42.81
  Q 158.17 42.49 164.97 41.89
  C 167.38 41.67 169.60 42.46 171.94 42.91
  Q 171.88 45.00 173.33 46.24
  A 1.81 0.93 27.2 0 1 173.89 47.02
  C 174.80 50.16 171.35 49.15 169.77 49.44
  A 1.27 1.06 -74.2 0 0 169.01 49.96
  Q 165.76 54.75 161.04 58.11
  A 1.79 1.60 -9.7 0 0 160.44 58.86
  Q 159.74 60.64 159.79 61.79
  Q 159.91 64.51 157.86 62.72
  C 155.75 60.87 154.23 60.77 151.28 61.23
  C 135.61 63.69 121.46 51.64 122.54 35.50
  Q 123.14 35.20 123.10 35.98
  A 0.41 0.38 87.2 0 0 123.54 36.41
  C 125.93 36.05 128.12 35.19 130.52 35.32
  Q 137.44 35.69 144.36 35.18
  A 0.50 0.46 79.6 0 1 144.85 35.55
  Q 144.96 35.90 145.10 35.87
  Z"
/>
<path fill="#112647" d="
  M 37.71 48.09
  Q 42.43 50.79 41.56 54.53
  C 40.42 59.49 34.19 59.71 30.22 58.41
  A 1.38 1.36 -6.1 0 1 29.48 57.82
  C 25.19 50.78 38.78 58.58 35.72 52.23
  C 34.66 50.02 31.92 49.19 30.68 47.11
  C 26.17 39.50 36.72 38.90 40.97 39.60
  A 0.68 0.57 4.8 0 1 41.54 40.17
  L 41.59 43.17
  A 0.44 0.40 6.8 0 1 41.05 43.55
  C 39.72 43.25 33.60 42.21 35.42 45.71
  Q 36.21 47.24 37.71 48.09
  Z"
/>
<path fill="#112647" d="
  M 52.32 54.69
  Q 56.18 54.77 54.07 58.08
  A 0.95 0.90 -72.6 0 1 53.30 58.51
  L 49.06 58.44
  Q 46.47 58.40 46.52 55.86
  L 46.66 49.02
  A 0.60 0.59 -82.8 0 0 46.21 48.43
  Q 43.80 47.84 44.88 45.20
  A 0.73 0.63 11.3 0 1 45.57 44.81
  Q 46.38 44.86 47.12 44.53
  A 0.60 0.50 68.9 0 0 47.36 43.83
  Q 47.04 42.92 47.45 42.14
  A 1.13 0.70 0.8 0 1 48.22 41.68
  L 51.24 41.17
  A 0.90 0.84 3.7 0 1 52.27 42.26
  Q 51.19 45.35 54.30 44.78
  A 0.64 0.59 -15.6 0 1 54.99 45.13
  Q 56.53 48.92 52.29 48.19
  A 0.59 0.58 -86.8 0 0 51.62 48.80
  L 51.81 54.18
  A 0.53 0.52 89.4 0 0 52.32 54.69
  Z"
/>
<path fill="#aa3a22" d="
  M 129.42 70.74
  Q 120.25 62.23 113.12 53.83
  A 1.49 1.47 -48.6 0 1 113.02 52.06
  L 119.41 42.43
  Q 119.68 42.02 119.89 42.47
  C 121.14 45.08 122.03 48.07 123.36 50.32
  Q 129.39 60.48 141.03 63.82
  A 0.30 0.29 30.5 0 1 141.16 64.31
  Q 136.87 68.63 132.39 71.11
  Q 130.78 72.00 129.42 70.74
  Z"
/>
<path fill="#112647" d="
  M 73.7371 50.6704
  A 8.32 7.26 -5.1 0 1 66.0954 58.6413
  A 8.32 7.26 -5.1 0 1 57.1629 52.1496
  A 8.32 7.26 -5.1 0 1 64.8046 44.1787
  A 8.32 7.26 -5.1 0 1 73.7371 50.6704
  Z
  M 64.7282 54.9387
  A 3.49 2.96 101.6 0 0 68.3295 52.1152
  A 3.49 2.96 101.6 0 0 66.1318 48.1013
  A 3.49 2.96 101.6 0 0 62.5305 50.9248
  A 3.49 2.96 101.6 0 0 64.7282 54.9387
  Z"
/>
<path fill="#112647" d="
  M 93.25 53.00
  Q 94.82 56.38 100.04 55.11
  A 1.27 1.27 80.0 0 1 101.57 56.04
  Q 102.04 57.93 99.50 58.61
  C 89.36 61.31 83.93 49.26 92.10 45.12
  C 96.32 42.98 102.73 44.24 103.30 49.99
  A 1.59 1.59 88.3 0 1 101.66 51.74
  L 94.24 51.45
  A 1.09 1.06 78.4 0 0 93.25 53.00
  Z
  M 94.42 48.20
  Q 92.69 49.74 95.00 49.99
  Q 96.19 50.12 97.82 49.63
  A 0.50 0.49 -17.7 0 0 98.15 49.00
  Q 97.10 45.82 94.42 48.20
  Z"
/>
<path fill="#112647" d="
  M 82.52 45.25
  L 85.42 44.44
  A 0.66 0.58 69.9 0 1 86.13 44.83
  Q 87.77 48.49 84.17 48.60
  Q 81.97 48.66 81.78 50.74
  L 81.12 57.55
  A 0.69 0.63 88.0 0 1 80.61 58.15
  Q 78.70 58.49 76.95 58.10
  A 0.64 0.62 7.9 0 1 76.45 57.47
  L 76.90 45.06
  A 0.61 0.58 -1.7 0 1 77.45 44.50
  Q 79.73 44.29 81.62 45.20
  A 1.41 0.99 -31.9 0 0 82.52 45.25
  Z"
/>
</svg>
